<mxfile host="app.diagrams.net" modified="2023-11-10T09:04:12.545Z" agent="Mozilla/5.0 (X11; Linux x86_64; rv:109.0) Gecko/20100101 Firefox/119.0" version="22.1.0" etag="nxcrmsGwpzMz1YJDC8zq" type="github">
  <diagram name="Page-1" id="LokO-BEBj8wXzIm-pMj2">
    <mxGraphModel>
      <root>
        <mxCell id="0" />
        <mxCell id="1" parent="0" />
      </root>
    </mxGraphModel>
  </diagram>
</mxfile>
